<svg width="159.000000" height="42.870850" viewBox="0 0 159 42.8708" fill="none" xmlns="http://www.w3.org/2000/svg" xmlns:xlink="http://www.w3.org/1999/xlink">
	<desc>
			Created with Pixso.
	</desc>
	<defs/>
	<path d="M70.04 28.93Q71.14 26.45 71.14 23.13Q71.14 19.8 70.04 17.32Q69.41 15.9 68.41 14.85Q67.66 14.07 66.69 13.48Q64.44 12.11 60.96 12.11Q57.45 12.11 55.19 13.48Q54.19 14.09 53.41 14.91Q52.44 15.94 51.83 17.31Q50.74 19.77 50.74 23.1Q50.74 26.42 51.83 28.91Q52.46 30.34 53.47 31.4Q54.22 32.2 55.19 32.79Q57.45 34.17 60.93 34.17Q64.44 34.17 66.69 32.79Q67.68 32.18 68.44 31.37Q69.42 30.32 70.04 28.93ZM96.12 33.87L101.59 12.44L97.12 12.44L94.39 24.15Q94.23 24.84 94.01 25.89Q93.79 26.94 93.6 27.97Q93.43 29 93.33 29.76Q93.24 29.04 93.06 27.99Q92.89 26.94 92.69 25.95Q92.5 24.95 92.34 24.45L89.22 12.44L84.94 12.44L81.82 24.45Q81.66 24.99 81.47 25.96Q81.28 26.94 81.09 27.97Q80.92 29 80.82 29.76Q80.73 29.04 80.55 27.99Q80.39 27.02 80.2 26.05Q80.18 25.97 80.16 25.89Q79.96 24.84 79.77 24.15L77.04 12.44L72.58 12.44L78.03 33.87L83.2 33.87L86.07 22.65Q86.16 22.29 86.31 21.61Q86.46 20.94 86.61 20.18Q86.76 19.41 86.89 18.7Q87.03 17.99 87.06 17.61Q87.13 17.99 87.25 18.7Q87.36 19.41 87.52 20.19Q87.69 20.97 87.82 21.63Q87.96 22.29 88.06 22.62L90.97 33.87L96.12 33.87ZM104.29 12.44L104.29 33.87L117.52 33.87L117.52 30.12L108.81 30.12L108.81 12.44L104.29 12.44ZM56.8 28.42Q55.51 26.48 55.51 23.13Q55.51 19.74 56.8 17.82Q57.13 17.31 57.58 16.94Q58.84 15.9 60.96 15.9Q63.1 15.9 64.35 16.96Q64.78 17.32 65.11 17.82Q66.37 19.74 66.37 23.13Q66.37 26.48 65.11 28.42Q64.79 28.92 64.36 29.29Q63.1 30.36 60.93 30.36Q58.88 30.36 57.64 29.36Q57.16 28.97 56.8 28.42Z" fill="#7653FC" fill-opacity="1.000000" fill-rule="evenodd"/>
	<path d="M129.36 32.2Q128.9 32.27 128.35 32.27Q127.3 32.27 126.78 31.75Q126.68 31.64 126.6 31.52Q126.11 30.78 126.11 29.36L126.11 20.96L130.15 20.96L130.15 20.15L126.11 20.15L126.11 17.05L125.47 17.05L125.18 20.12L123.26 20.34L123.26 20.96L125.18 20.96L125.18 29.43Q125.18 31.23 125.9 32.17Q125.98 32.28 126.08 32.37Q126.81 33.11 128.27 33.11Q128.88 33.11 129.35 33.01Q129.83 32.91 130.22 32.77L130.22 31.98Q129.83 32.12 129.36 32.2ZM142.78 29.91Q143.39 28.42 143.39 26.51Q143.39 24.61 142.8 23.12Q142.37 22.02 141.59 21.26Q141.33 20.99 141.02 20.77Q139.82 19.91 137.92 19.91Q136.1 19.91 134.82 20.74Q134.23 21.12 133.76 21.68Q132.26 23.46 132.26 26.51Q132.26 28.45 132.89 29.94Q133.37 31.05 134.18 31.8Q134.46 32.06 134.77 32.27Q134.78 32.27 134.78 32.28Q136.02 33.11 137.8 33.11Q139.67 33.11 140.92 32.26Q141.32 31.99 141.65 31.65Q142.36 30.93 142.78 29.91ZM155.4 20.74Q154.21 19.91 152.45 19.91Q151.2 19.91 150.28 20.34Q149.37 20.77 148.77 21.46Q148.17 22.14 147.88 22.93L147.83 22.93L147.74 20.15L146.97 20.15L146.97 38.48L147.88 38.48L147.88 33.25Q147.88 32.56 147.87 31.8Q147.86 31.04 147.83 30.32L147.88 30.32Q147.97 30.55 148.08 30.77Q148.53 31.64 149.38 32.29Q150.45 33.11 152.25 33.11Q153.91 33.11 155.08 32.36Q155.7 31.97 156.18 31.37Q157.6 29.63 157.6 26.41Q157.6 23.22 156.27 21.56Q155.88 21.08 155.4 20.74ZM134.34 30.67Q133.22 29.08 133.22 26.51Q133.22 23.8 134.43 22.27Q134.79 21.82 135.24 21.5Q136.32 20.75 137.92 20.75Q139.53 20.75 140.53 21.52Q140.77 21.7 140.98 21.92Q141.63 22.59 141.98 23.58Q142.43 24.87 142.43 26.51Q142.43 28.21 141.95 29.51Q141.59 30.48 140.92 31.13Q140.7 31.35 140.44 31.54Q139.41 32.27 137.8 32.27Q136.16 32.27 135.12 31.48Q134.68 31.15 134.34 30.67ZM149.71 21.53Q150.75 20.75 152.37 20.75Q153.92 20.75 154.91 21.49Q156.64 22.8 156.64 26.41Q156.64 29.24 155.48 30.76Q155.04 31.32 154.48 31.67Q153.53 32.27 152.21 32.27Q150.8 32.27 149.83 31.62Q149.37 31.31 149.01 30.86Q147.88 29.46 147.88 26.56L147.88 26.41Q147.91 23.7 149.02 22.23Q149.32 21.82 149.71 21.53Z" fill="#7653FC" fill-opacity="1.000000" fill-rule="evenodd"/>
	<path d="M41 1.17C41 0.52 40.46 0 39.79 0C39.13 0 38.59 0.52 38.59 1.17C38.59 2.45 37.46 3.53 36.11 3.53L30.69 3.53C27.6 1.99 24.08 1.17 20.5 1.17C16.91 1.17 13.39 1.99 10.3 3.53L4.89 3.53C3.54 3.53 2.4 2.45 2.4 1.17C2.4 0.52 1.86 0 1.2 0C0.53 0 0 0.52 0 1.17L0 4.71C0 6.9 0.88 8.96 2.48 10.52C0.85 13.14 0 16 0 18.86C0 28.62 9.19 36.55 20.5 36.55C31.8 36.55 41 28.62 41 18.86C41 16 40.14 13.15 38.52 10.54C40.05 9.04 41 6.98 41 4.71L41 1.17ZM20.5 3.53C22.41 3.53 24.3 3.79 26.09 4.29C24.75 4.82 23.52 5.61 22.47 6.65C21.67 7.44 21.01 8.33 20.5 9.29C20 8.33 19.34 7.44 18.54 6.65C17.48 5.61 16.25 4.82 14.9 4.29C16.7 3.79 18.58 3.53 20.5 3.53ZM20.5 23.11C20.94 23.84 21.51 24.5 22.16 25.06L20.5 28.14L18.83 25.06C19.48 24.5 20.05 23.84 20.5 23.11ZM13.29 24.76C9.98 24.76 7.28 22.12 7.28 18.86C7.28 15.61 9.98 12.97 13.29 12.97C16.6 12.97 19.29 15.61 19.29 18.86C19.29 22.12 16.6 24.76 13.29 24.76ZM21.7 18.86C21.7 18.77 21.7 18.68 21.7 18.58C21.71 18.53 21.72 18.47 21.72 18.41L21.72 18.39C21.96 15.36 24.55 12.97 27.7 12.97C31.01 12.97 33.71 15.61 33.71 18.86C33.71 22.12 31.01 24.76 27.7 24.76C24.39 24.76 21.7 22.12 21.7 18.86ZM2.42 5.24C3.17 5.66 4.02 5.89 4.89 5.89L10.57 5.89L10.58 5.89L10.89 5.89C13.13 5.89 15.25 6.75 16.84 8.31C18.15 9.6 18.97 11.24 19.22 13.02C17.86 11.69 16.05 10.82 14.04 10.64C13.95 10.62 13.86 10.61 13.76 10.61L8.5 10.61C7.19 10.61 5.97 10.21 4.97 9.52C4.91 9.45 4.84 9.38 4.75 9.32C4.7 9.29 4.64 9.25 4.58 9.23C3.38 8.25 2.57 6.83 2.42 5.24ZM38.59 18.86C38.59 27.32 30.47 34.2 20.5 34.2C10.52 34.2 2.4 27.32 2.4 18.86C2.4 16.5 3.09 14.13 4.41 11.94C5.36 12.45 6.39 12.78 7.47 12.91C5.88 14.41 4.88 16.53 4.88 18.86C4.88 23.42 8.65 27.12 13.29 27.12C14.55 27.12 15.74 26.85 16.81 26.36L19.43 31.21C19.64 31.6 20.05 31.84 20.5 31.84C20.94 31.84 21.35 31.6 21.56 31.21L24.18 26.36C25.25 26.85 26.44 27.12 27.7 27.12C32.34 27.12 36.11 23.42 36.11 18.86C36.11 16.53 35.11 14.41 33.52 12.91C34.62 12.78 35.65 12.45 36.58 11.95C37.9 14.14 38.59 16.51 38.59 18.86ZM36.39 9.25C36.34 9.27 36.29 9.3 36.24 9.33C36.17 9.38 36.1 9.45 36.04 9.51C35.04 10.2 33.82 10.61 32.51 10.61L27.24 10.61C27.15 10.61 27.06 10.62 26.97 10.64C24.96 10.81 23.15 11.68 21.79 13C22.04 11.23 22.86 9.6 24.17 8.31C25.76 6.75 27.87 5.89 30.12 5.89L30.39 5.89C30.39 5.89 30.4 5.89 30.4 5.89C30.4 5.89 30.4 5.89 30.41 5.89L36.11 5.89C36.98 5.89 37.83 5.67 38.57 5.24C38.42 6.85 37.6 8.27 36.39 9.25Z" fill="#7653FC" fill-opacity="1.000000" fill-rule="nonzero"/>
	<path d="M13.5 16.11L12.48 18.7L9.22 18.7L11.86 20.31L10.85 22.9L13.5 21.3L16.14 22.9L15.13 20.31L17.77 18.7L14.51 18.7L13.5 16.11Z" fill="#7653FC" fill-opacity="1.000000" fill-rule="nonzero"/>
	<path d="M27.5 16.11L26.48 18.7L23.22 18.7L25.86 20.31L24.85 22.9L27.5 21.3L30.14 22.9L29.13 20.31L31.77 18.7L28.51 18.7L27.5 16.11Z" fill="#7653FC" fill-opacity="1.000000" fill-rule="nonzero"/>
</svg>
